<?xml version="1.0" encoding="UTF-8" standalone="no"?>
<!-- Created with Inkscape (http://www.inkscape.org/) -->

<svg
   xmlns:dc="http://purl.org/dc/elements/1.1/"
   xmlns:cc="http://creativecommons.org/ns#"
   xmlns:rdf="http://www.w3.org/1999/02/22-rdf-syntax-ns#"
   xmlns:svg="http://www.w3.org/2000/svg"
   xmlns="http://www.w3.org/2000/svg"
   xmlns:sodipodi="http://sodipodi.sourceforge.net/DTD/sodipodi-0.dtd"
   xmlns:inkscape="http://www.inkscape.org/namespaces/inkscape"
   width="210mm"
   height="210mm"
   viewBox="0 0 210 210"
   version="1.1"
   id="svg884"
   inkscape:version="0.92.4 (5da689c313, 2019-01-14)"
   sodipodi:docname="winapp.svg">
  <defs
     id="defs878" />
  <sodipodi:namedview
     id="base"
     pagecolor="#ffffff"
     bordercolor="#666666"
     borderopacity="1.0"
     inkscape:pageopacity="0.0"
     inkscape:pageshadow="2"
     inkscape:zoom="0.49497475"
     inkscape:cx="-60.592669"
     inkscape:cy="600.34631"
     inkscape:document-units="mm"
     inkscape:current-layer="layer1"
     showgrid="false"
     showguides="true"
     inkscape:guide-bbox="true"
     inkscape:snap-bbox="true"
     inkscape:snap-bbox-midpoints="true"
     inkscape:window-width="1453"
     inkscape:window-height="1073"
     inkscape:window-x="1146"
     inkscape:window-y="406"
     inkscape:window-maximized="0">
    <sodipodi:guide
       position="223.43732,105.30419"
       orientation="0,1"
       id="guide1429"
       inkscape:locked="false" />
    <sodipodi:guide
       position="105.07033,245.35343"
       orientation="1,0"
       id="guide1431"
       inkscape:locked="false" />
  </sodipodi:namedview>
  <metadata
     id="metadata881">
    <rdf:RDF>
      <cc:Work
         rdf:about="">
        <dc:format>image/svg+xml</dc:format>
        <dc:type
           rdf:resource="http://purl.org/dc/dcmitype/StillImage" />
        <dc:title></dc:title>
      </cc:Work>
    </rdf:RDF>
  </metadata>
  <g
     inkscape:label="Layer 1"
     inkscape:groupmode="layer"
     id="layer1"
     transform="translate(0,-87)">
    <path
       style="fill:#333333;fill-opacity:1;stroke:none;stroke-width:0.33706167;stroke-opacity:1"
       d="m 105.07059,98.902768 a 97.46327,92.793157 0 0 0 -97.4633013,92.792782 97.46327,92.793157 0 0 0 97.4633013,92.7933 97.46327,92.793157 0 0 0 97.46278,-92.7933 97.46327,92.793157 0 0 0 -97.46278,-92.792782 z m 0.047,19.053102 a 73.894341,73.894341 0 0 1 73.89472,73.89471 73.894341,73.894341 0 0 1 -73.89472,73.89419 73.894341,73.894341 0 0 1 -73.894191,-73.89419 73.894341,73.894341 0 0 1 73.894191,-73.89471 z"
       id="path1439"
       inkscape:connector-curvature="0" />
    <path
       style="fill:#ffffff;fill-opacity:1;stroke:none;stroke-width:0.33706167;stroke-opacity:1"
       d="m 105.11761,98.904828 v 19.051042 a 73.894341,73.894341 0 0 1 73.89472,73.89471 73.894341,73.894341 0 0 1 -73.89472,73.89419 73.894341,73.894341 0 0 1 -62.147104,-33.9235 L 24.473959,243.7177 a 97.46327,92.793157 0 0 0 80.596631,40.77115 97.46327,92.793157 0 0 0 97.46278,-92.7933 97.46327,92.793157 0 0 0 -97.41576,-92.790722 z"
       id="path1439-5"
       inkscape:connector-curvature="0" />
  </g>
</svg>
